name processed_emg_signals
nRows=90
nColumns=7
 
endheader
time	RGLTMED	RRF	RADDLONG	RST	RTA	RGM
1.455	0.1821730606221528	0.0252964621442609	0.0235818550688779	0.0667365576938978	0.036964976527137	0.1107322873125844
1.456	0.180305628576186	0.0251412634846174	0.023617057060756	0.0654206604730947	0.0386907724158208	0.1106711406138066
1.457	0.1784737861789906	0.0249877461391931	0.0236583670291517	0.0641245425847049	0.0404136461621624	0.110593946931214
1.458	0.1766771526477547	0.024835899064949	0.0237057388585669	0.062848445569964	0.0421322385967146	0.1105014726841834
1.459	0.1749153246618112	0.0246857134043492	0.0237591200126183	0.0615926082529687	0.0438452502424995	0.1103945163847142
1.46	0.1731878777410182	0.0245371824868015	0.023818451429551	0.0603572665742942	0.0455514409171353	0.1102739083715301
1.461	0.1714943675934988	0.0243903018227045	0.023883667422259	0.0591426534240471	0.0472496292706276	0.110140510532972
1.462	0.1698343314315962	0.0242450690901725	0.0239546955835297	0.057948998474281	0.0489386922608615	0.1099952160193129
1.463	0.1682072892550596	0.0241014841145435	0.024031456697221	0.0567765280104879	0.05061756456891	0.1098389489450193
1.464	0.1666127451007279	0.0239595488408686	0.0241138646560962	0.0556254647617708	0.052285237956211	0.1096726640813578
1.465	0.1650501882583847	0.0238192672996293	0.0242018263870022	0.0544960277291156	0.0539407605658111	0.1094973465396427
1.466	0.1635190944527594	0.0236806455660144	0.0242952417840869	0.0533884320110778	0.0555832361698854	0.109314011445344
1.467	0.1620189269917265	0.0235436917130863	0.0243940036507171	0.0523028886260468	0.0572118233659314	0.1091237036032248
1.468	0.1605491378807703	0.0234084157591909	0.0244979976507754	0.0512396043301616	0.0588257347241982	0.1089274971534949
1.469	0.1591091689036153	0.0232748296098862	0.0246071022700111	0.0501987814297432	0.0604242358890973	0.1087264952188294
1.47	0.157698452668779	0.0231429469946618	0.0247211887881115	0.0491806175870621	0.0620066446375106	0.1085218295418106
1.471	0.1563164136215071	0.023012783398667	0.0248401212621649	0.0481853056180494	0.0635723298969367	0.108314660112121
1.472	0.1549624690201877	0.0228843559896465	0.0249637565221169	0.0472130332805793	0.0651207107264285	0.1081061747826264
1.473	0.153636029876024	0.0227576835402273	0.0250919441788333	0.0462639830518219	0.066651255263192	0.107897588873309
1.474	0.1523365018543645	0.0226327863457016	0.025224526645316	0.0453383318932283	0.0681634796376713	0.1076901447619144
1.475	0.1510632861359948	0.0225096861373731	0.0253613391716138	0.0444362510017951	0.0696569468598433	0.107485111460005
1.476	0.1498157802366413	0.0223884059915939	0.0255022098939054	0.0435579055465324	0.0711312656793317	0.1072837841730294
1.477	0.1485933787830728	0.0222689702345635	0.0256469598982307	0.0427034543894757	0.072586089421852	0.1070874838429595
1.478	0.1473954742445932	0.0221514043430566	0.0257954032992377	0.0418730497910586	0.0740211148043437	0.1068975566720023
1.479	0.1462214576193598	0.0220357348412677	0.0259473473343264	0.041066837100211	0.0754360807310614	0.1067153736259276
1.48	0.1450707190758533	0.0219219891940068	0.0261025924734686	0.0402849544299666	0.0768307670727526	0.1065423299155533
1.481	0.1439426485508078	0.0218101956965369	0.0262609325449975	0.0395275323197986	0.07820499343094	0.1063798444549669
1.482	0.1428366363056503	0.0217003833613412	0.0264221548775986	0.0387946933861186	0.0795586178892886	0.1062293592950387
1.483	0.1417520734441526	0.0215925818021691	0.0265860404587006	0.0380865519625989	0.0808915357539616	0.1060923390308007
1.484	0.1406883523941883	0.0214868211157147	0.026752364109462	0.037403213732033	0.0822036782848538	0.1059702701812601
1.485	0.139644867356603	0.0213831317612912	0.0269208946764784	0.0367447753515334	0.0834950114194842	0.1058646605402326
1.486	0.1386210147240782	0.0212815444389072	0.0270913952403551	0.0361113240728076	0.084765534491266	0.1057770384968028
1.487	0.1376161934726918	0.0211820899661077	0.0272636233412035	0.0355029373592641	0.0860152789437481	0.1057089523240779
1.488	0.1366298055286056	0.0210847991539988	0.0274373312210847	0.0349196825015641	0.087244307042431	0.1056619694348336
1.489	0.1356612561120972	0.0209897026828191	0.0276122660833592	0.0343616162332012	0.0884527105857081	0.1056376756026916
1.49	0.1347099540609066	0.0208968309774458	0.0277881703688175	0.0338287843475816	0.0896406096166004	0.1056376741473914
1.491	0.1337753121346499	0.0208062140831701	0.027964782048494	0.0333212213179838	0.0908081511369788	0.1056635850826989
1.492	0.1328567473018524	0.0207178815420874	0.028141834932986	0.0328389499217552	0.0919555078260097	0.1057170442254071
1.493	0.1319536810108432	0.0206318622704317	0.028319058998097	0.0323819808699954	0.0930828767644808	0.1057997022637951
1.494	0.1310655394454524	0.0205481844371777	0.0284961807266061	0.0319503124439691	0.0941904781665571	0.1059132237838482
1.495	0.1301917537661513	0.0204668753442741	0.0286729234658628	0.0315439301393795	0.0952785541203278	0.1060592862515299
1.496	0.1293317603370551	0.0203879613088196	0.028849007800867	0.0311628063195707	0.0963473673383677	0.1062395789492462
1.497	0.1284850009390414	0.0203114675475376	0.0290241519423795	0.0308068998786724	0.0973971999194063	0.106455801864578
1.498	0.1276509229692939	0.0202374180638309	0.0291980721295444	0.0304761559156453	0.0984283521221298	0.1067096645291467
1.499	0.1268289796276812	0.0201658355376887	0.0293704830464303	0.0301705054200561	0.0994411411520914	0.1070028848053951
1.5	0.1260186300906475	0.0200967412187086	0.0295410982518522	0.0298898649704181	0.1004358999627693	0.1073371876190122
1.5010000000000001	0.1252193396735987	0.0200301548224221	0.0297096306217866	0.0296341364457652	0.1014129760717164	0.1077143036347526
1.502	0.1244305799829932	0.0199660944301722	0.0298757928037225	0.0294032067511377	0.1023727303928476	0.1081359678735074
1.5030000000000001	0.1236518290596009	0.0199045763927275	0.0300392976822213	0.029196947557589	0.1033155360858472	0.1086039182685945
1.504	0.1228825715144981	0.019845615237853	0.0301998588549419	0.0290152150573429	0.1042417774239282	0.1091198941594036
1.5050000000000001	0.1221222986593677	0.0197892235820534	0.0303571911182993	0.0288578497346815	0.1051518486812768	0.1096856347206771
1.506	0.1213705086327419	0.0197354120466469	0.0305110109618557	0.028724676153164	0.1060461530417583	0.1103028773257107
1.5070000000000001	0.1206267065237608	0.0196841891783985	0.0306610370704698	0.0286155027597613	0.1069251015304716	0.1109733558417169
1.508	0.1198904044951084	0.0196355613748017	0.0308069908331486	0.0285301217064849	0.1077891119697547	0.1116987988555979
1.5090000000000001	0.1191611219067494	0.0195895328141939	0.0309485968574884	0.0284683086901001	0.1086386079609668	0.1124809278283502
1.51	0.1184383854419321	0.0195461053908033	0.0310855834886209	0.0284298228105634	0.1094740178932156	0.1133214551765287
1.5110000000000001	0.1177217292367362	0.019505278654854	0.031217683331442	0.0284144064488318	0.1102957739798405	0.1142220822794844
1.512	0.1170106950142055	0.0194670497578495	0.031344633774976	0.0284217851647345	0.1111043113232916	0.1151844974117045
1.5130000000000001	0.1163048322239017	0.019431413403077	0.031466177517567	0.0284516676156042	0.111900067008801	0.1162103736005839
1.514	0.1156036981875301	0.0193983618013757	0.031582063091659	0.0285037454963337	0.1126834792272046	0.1173013664110577
1.5150000000000001	0.1149068582511727	0.0193678846321542	0.0316920453868142	0.0285776935014798	0.113454986427197	0.1184591116598621
1.516	0.1142138859444254	0.0193399690095597	0.0317958861696833	0.0286731693099606	0.1142150264974252	0.1196852230633604
1.5170000000000001	0.1135243631466022	0.019314599453727	0.0318933545995824	0.0287898135928619	0.1149640359788236	0.1209812898241463
1.518	0.112837880259963	0.0192917578669647	0.0319842277383305	0.0289272500448221	0.1157024493076521	0.1223488741624724
1.5190000000000001	0.1121540363898273	0.0192714235147404	0.0320682910529849	0.0290850854394139	0.1164306980897483	0.123789508799345
1.52	0.1114724395313409	0.019253573011341	0.0321453389100866	0.0292629097089439	0.1171492104065284	0.1253046943984581
1.5210000000000001	0.1107927067625033	0.0192381803100492	0.0322151750600381	0.0294602960490132	0.1178584101532496	0.1268958969744273
1.522	0.1101144644429151	0.0192252166976798	0.0322776131102541	0.0296768010481469	0.1185587164100308	0.1285645452746837
1.5230000000000001	0.1094373484174127	0.0192146507933005	0.0323324769858241	0.0299119648427781	0.1192505428459765	0.1303120281422733
1.524	0.1087610042235325	0.0192064485509254	0.0323796013765087	0.0301653112978103	0.119934297156578	0.1321396918664922
1.5250000000000001	0.1080850873014721	0.0192005732659722	0.0324188321690202	0.030436348213008	0.1206103805344246	0.1340488375279658
1.526	0.1074092632049522	0.0191969855852551	0.0324500268635582	0.0307245675554784	0.1212791871730378	0.1360407183445671
1.5270000000000001	0.1067332078112708	0.0191956435202751	0.0324730549736993	0.0310294457185626	0.1219411038035369	0.1381165370243779
1.528	0.1060566075286547	0.0191965024635997	0.0324877984087238	0.0313504438074972	0.1225965092637146	0.1402774431318415
1.5290000000000001	0.1053791594990009	0.019199515208131	0.0324941518375002	0.0316870079522273	0.1232457740989238	0.1425245304732653
1.53	0.1047005717940885	0.0192046319691	0.0324920230330631	0.0320385696477225	0.1238892601940607	0.1448588345078335
1.5310000000000001	0.1040205636035155	0.0192118004087094	0.0324813331970156	0.0324045461220983	0.1245273204358552	0.1472813297902752
1.532	0.103338865412758	0.0192209656633522	0.0324620172628717	0.0327843407327565	0.1251602984045975	0.1497929274513229
1.5330000000000001	0.1026552191699931	0.0192320703734616	0.0324340241774634	0.0331773433906848	0.1257885280944805	0.1523944727219795
1.534	0.1019693784405183	0.0192450547159969	0.0323973171595167	0.0335829310129816	0.1264123336616341	0.1550867425075576
1.5350000000000001	0.1012811085477816	0.0192598564396516	0.0323518739344449	0.0340004680035553	0.1270320291989243	0.1578704430171276
1.536	0.1005901867001478	0.0192764109028627	0.0322976869444188	0.0344293067618978	0.1276479185365535	0.1607462074537373
1.537	0.099896402102595	0.0192946511147116	0.0322347635327378	0.0348687882197497	0.1282602950675729	0.1637145937702073
1.538	0.0991995560528316	0.0193145077788385	0.0321631261015349	0.0353182424053536	0.1288694415977786	0.1667760824947986
1.539	0.0984994620215672	0.0193359093404476	0.0320828122418589	0.0357769890349925	0.1294756302197423	0.1699310746304819
1.54	0.0977959457170802	0.0193587820365332	0.0319938748352248	0.0362443381313463	0.1300791222110397	0.1731798896309634
1.541	0.0970888451344412	0.0193830499493536	0.0318963821258705	0.0367195906681696	0.1306801679568349	0.1765227634561823
1.542	0.0963780105900192	0.0194086350632305	0.0317904177630271	0.0372020392406726	0.1312790068970378	0.1799598467094975
1.543	0.0956633047419519	0.0194354573246372	0.0316760808126207	0.0376909687608796	0.1318758674981487	0.1834912028584895
1.544	0.0949446025973949	0.0194634347055583	0.0315534857379041	0.0381856571771768	0.1324709672497111	0.1871168065409647
